<?xml version="1.0" standalone="no"?>
<!DOCTYPE svg PUBLIC "-//W3C//DTD SVG 20010904//EN"
 "http://www.w3.org/TR/2001/REC-SVG-20010904/DTD/svg10.dtd">
<svg version="1.0" xmlns="http://www.w3.org/2000/svg"
 width="736.000000pt" height="736.000000pt" viewBox="0 0 736.000000 736.000000"
 preserveAspectRatio="xMidYMid meet">
<metadata>
Created by potrace 1.14, written by Peter Selinger 2001-2017
</metadata>
<g transform="translate(0.000000,736.000000) scale(0.100000,-0.100000)"
fill="#000000" stroke="none">
<path d="M3620 5918 c-58 -3 -159 -9 -225 -12 -66 -3 -163 -10 -215 -16 -52
-6 -171 -15 -265 -20 -93 -5 -179 -11 -190 -13 -11 -3 -58 -10 -105 -16 -268
-35 -324 -44 -410 -62 -190 -39 -313 -70 -410 -102 -25 -9 -71 -23 -103 -32
-32 -9 -87 -32 -122 -51 -36 -19 -72 -34 -80 -34 -41 0 -127 -59 -218 -150
-53 -54 -97 -103 -97 -110 0 -7 -11 -28 -25 -46 -36 -47 -91 -179 -106 -252
-15 -78 -6 -173 22 -227 11 -22 25 -74 29 -115 8 -71 18 -134 40 -245 5 -27
18 -111 29 -185 35 -231 53 -337 96 -570 8 -41 21 -145 30 -230 31 -306 37
-361 51 -423 14 -64 62 -431 83 -637 16 -155 27 -200 62 -255 16 -25 29 -48
29 -50 0 -3 -19 -5 -42 -5 -57 -1 -113 -28 -171 -84 l-47 -46 15 -37 c9 -20
17 -38 18 -39 17 -14 110 -53 177 -75 47 -15 123 -42 170 -59 47 -18 110 -40
140 -49 30 -10 80 -32 110 -49 144 -81 448 -192 595 -216 110 -19 351 -24 580
-13 142 8 174 12 197 28 23 16 34 18 70 10 159 -36 398 -44 465 -16 20 9 64
22 97 29 l61 15 48 -50 c44 -45 60 -79 38 -79 -5 0 -16 6 -23 13 -17 17 -58
28 -128 34 -75 6 -85 -10 -82 -133 2 -101 26 -175 63 -195 12 -6 38 -26 58
-44 20 -19 73 -53 117 -76 43 -23 84 -45 89 -49 21 -16 125 -40 173 -40 53 0
227 49 275 78 28 17 68 75 107 158 30 62 50 175 50 275 0 84 -2 93 -30 134
l-30 43 193 4 c172 3 204 7 306 32 129 33 145 30 188 -33 19 -28 23 -48 23
-115 1 -69 5 -90 30 -141 17 -33 30 -66 30 -73 0 -41 107 -154 185 -195 56
-30 66 -32 160 -31 79 1 116 7 175 27 93 32 170 69 192 93 19 22 124 231 144
288 21 57 18 172 -6 224 -18 41 -21 42 -65 42 -51 0 -91 -17 -130 -56 -32 -32
-48 -27 -56 18 -5 36 -48 99 -82 123 -20 14 -20 15 9 69 25 49 27 57 15 80 -8
14 -26 28 -43 32 -27 5 -29 9 -25 38 42 274 47 335 46 611 -1 422 -12 620 -37
676 -21 48 -63 89 -91 89 -9 0 -24 9 -33 19 -14 16 -14 20 -2 25 24 9 15 43
-19 73 -23 20 -80 46 -173 77 -76 27 -177 65 -224 86 -47 21 -95 41 -107 45
-13 3 -23 13 -23 22 0 11 3 13 13 5 8 -7 18 -5 34 8 25 20 18 31 -24 44 -24 8
-30 21 -13 29 6 3 5 4 -2 3 -19 -4 -20 -22 -2 -40 9 -9 14 -19 11 -22 -5 -5
-28 15 -49 44 -28 37 -97 64 -186 71 -48 5 -68 9 -44 10 23 0 42 6 42 12 0 5
-5 7 -11 4 -6 -4 -9 -1 -8 6 3 17 -11 49 -20 49 -4 0 -13 -11 -19 -25 -6 -14
-17 -25 -23 -25 -8 0 -6 7 4 18 22 24 27 225 10 412 -7 74 -15 225 -17 335 -6
290 -36 409 -131 516 -18 20 -38 54 -45 75 -7 22 -16 44 -20 49 -4 6 -13 28
-20 50 -20 64 -78 179 -110 220 -17 21 -30 41 -30 46 0 13 -67 77 -99 94 -17
8 -31 20 -31 25 0 5 -25 17 -56 26 -31 9 -78 27 -104 40 -27 13 -52 24 -57 24
-5 0 -32 16 -61 35 -120 79 -338 118 -572 103z m-722 -135 c-21 -2 -57 -2 -80
0 -24 2 -7 4 37 4 44 0 63 -2 43 -4z m1322 -58 c17 -9 30 -18 30 -21 0 -2 -10
1 -22 7 -12 6 -33 15 -47 20 -17 5 -20 8 -8 8 10 1 31 -6 47 -14z m-2480 -179
c0 -2 -9 -6 -20 -9 -11 -3 -18 -1 -14 4 5 9 34 13 34 5z m1018 -420 c-10 -7
-18 -18 -18 -23 0 -17 -122 -23 -164 -9 -53 18 -33 27 82 36 54 4 102 8 107 8
6 1 2 -5 -7 -12z m342 -460 c0 -2 -8 -10 -17 -17 -16 -13 -17 -12 -4 4 13 16
21 21 21 13z m-75 -35 c8 -14 -13 -24 -33 -16 -14 5 -14 7 -2 15 19 12 27 12
35 1z m680 -686 c22 -8 60 -14 85 -15 63 0 185 -80 249 -163 25 -33 65 -80 88
-104 44 -47 83 -119 83 -153 0 -29 24 -82 43 -99 32 -25 19 -33 -46 -26 -72 8
-247 -20 -387 -61 -47 -14 -98 -29 -115 -33 -32 -8 -95 -39 -95 -46 0 -14 38
-21 60 -12 14 5 32 11 40 12 8 1 42 9 75 18 94 25 363 67 432 67 34 0 74 -5
90 -11 29 -11 139 -35 208 -46 58 -8 33 14 -51 46 -84 33 -96 48 -63 89 13 17
34 31 46 31 16 1 27 11 37 36 8 19 20 35 25 35 6 0 11 10 11 21 0 25 29 76 76
135 28 35 40 42 81 48 79 10 107 17 119 27 17 14 107 24 214 24 90 0 98 -2
137 -30 42 -30 61 -55 43 -55 -6 0 -10 -7 -10 -16 0 -9 -30 -47 -67 -84 -38
-37 -83 -86 -101 -110 -32 -43 -33 -45 -26 -109 5 -36 7 -82 6 -101 -2 -32 2
-38 56 -71 31 -20 67 -40 79 -43 28 -9 52 -36 30 -36 -8 0 -20 7 -27 15 -6 8
-36 21 -66 30 -30 9 -64 25 -75 36 -24 24 -49 18 -49 -11 0 -35 214 -127 368
-159 64 -13 121 -57 195 -151 89 -111 111 -150 148 -259 33 -99 37 -105 69
-116 30 -10 36 -17 43 -56 31 -176 27 -255 -19 -342 -14 -28 -32 -68 -40 -90
-7 -21 -30 -58 -50 -82 -30 -37 -40 -44 -61 -39 -19 5 -31 -1 -55 -25 -21 -21
-35 -28 -41 -22 -5 5 -22 7 -38 4 -25 -5 -28 -2 -38 31 -11 42 -36 66 -104
102 l-49 25 -50 -18 c-28 -10 -58 -29 -69 -44 -28 -40 -25 -107 6 -149 14 -19
25 -38 25 -44 0 -5 7 -18 16 -28 16 -17 14 -18 -43 -17 -41 1 -69 -4 -86 -16
-15 -9 -31 -14 -36 -10 -6 3 -19 2 -28 -4 -10 -5 -56 -11 -103 -14 -47 -3
-112 -10 -145 -16 -33 -6 -98 -14 -145 -17 -47 -3 -109 -9 -139 -15 -30 -5
-87 -9 -127 -9 l-72 0 -23 47 c-26 52 -58 75 -130 94 -42 11 -50 10 -102 -14
-68 -31 -82 -56 -79 -145 1 -61 1 -62 -31 -75 -43 -17 -418 -17 -439 0 -8 7
-24 10 -36 6 -28 -7 -125 22 -172 52 -19 12 -60 49 -91 81 -31 33 -74 74 -97
91 -44 36 -101 141 -121 228 -13 53 -31 214 -37 330 -2 39 -10 120 -19 180 -8
61 -19 139 -24 175 -5 36 -16 96 -25 133 -9 38 -14 78 -10 89 8 27 -55 86
-180 168 -54 35 -93 66 -87 68 11 4 16 32 5 32 -3 0 -14 -5 -25 -10 -14 -8
-27 -7 -47 3 -64 34 -240 97 -271 97 -22 0 -121 40 -121 49 1 26 105 81 154
81 18 0 61 -12 97 -26 56 -23 87 -31 136 -33 25 -2 83 -64 95 -103 21 -71 107
-119 100 -55 -2 15 -1 27 2 27 3 0 62 -27 132 -59 99 -46 132 -58 146 -50 10
5 18 17 18 25 0 16 -46 64 -61 64 -5 0 -70 29 -144 65 -108 52 -136 70 -141
90 -6 25 0 187 10 240 9 56 49 125 84 148 109 69 147 91 247 140 61 30 130 62
155 71 25 10 56 23 70 29 14 6 81 13 150 17 221 12 303 11 345 -5z m-2323
-310 c9 -19 16 -60 17 -110 1 -46 10 -108 21 -145 17 -55 19 -77 11 -140 -8
-69 -9 -71 -10 -23 0 28 -10 95 -21 150 -22 108 -50 321 -48 368 0 18 3 11 7
-20 4 -27 14 -63 23 -80z m85 -677 c-3 -8 -6 -5 -6 6 -1 11 2 17 5 13 3 -3 4
-12 1 -19z m26 -78 c-7 -8 -23 24 -22 45 0 15 3 13 13 -10 7 -16 11 -32 9 -35z
m-6 -52 c-3 -8 -6 -5 -6 6 -1 11 2 17 5 13 3 -3 4 -12 1 -19z m21 -143 l0 -60
-13 69 c-13 72 -8 142 6 81 4 -16 7 -57 7 -90z m650 -73 c2 -7 -3 -12 -12 -12
-9 0 -16 7 -16 16 0 17 22 14 28 -4z m-641 -74 c-2 -18 -4 -6 -4 27 0 33 2 48
4 33 2 -15 2 -42 0 -60z m10 -60 c-3 -8 -6 -5 -6 6 -1 11 2 17 5 13 3 -3 4
-12 1 -19z m52 -334 c13 -48 40 -83 60 -76 9 3 11 0 6 -7 -4 -7 3 -23 16 -37
12 -13 18 -24 13 -24 -12 0 -74 66 -91 97 -7 12 -15 41 -18 65 -6 48 -1 42 14
-18z m179 -178 c28 -16 51 -31 49 -33 -5 -4 -117 57 -117 64 0 6 4 4 68 -31z
m-258 -71 c36 -18 40 -40 7 -31 -33 8 -97 35 -97 41 0 11 63 4 90 -10z m3860
-37 c55 -23 100 -65 150 -138 46 -67 58 -100 36 -100 -8 0 -17 4 -21 9 -6 11
-75 -25 -75 -39 0 -4 -9 -10 -20 -13 -17 -4 -22 2 -31 39 -6 24 -28 63 -48 86
-52 60 -114 164 -106 178 8 14 53 5 115 -22z m-3207 -118 c20 -8 37 -18 37
-22 0 -13 -13 -9 -55 18 -42 27 -42 27 18 4z m152 -61 c82 -38 143 -79 117
-79 -21 0 -179 79 -193 97 -12 14 -11 15 11 8 14 -4 43 -16 65 -26z m3505 -5
c0 -3 -6 -18 -14 -32 -7 -15 -19 -39 -26 -54 -8 -16 -19 -28 -26 -28 -8 0 -11
-6 -8 -15 4 -8 3 -22 0 -31 -5 -13 -13 -11 -45 17 -22 19 -49 41 -61 49 -18
13 -21 22 -16 47 7 30 9 31 84 40 103 13 112 14 112 7z m189 -90 c50 -93 57
-96 129 -51 74 46 105 48 122 8 9 -22 9 -42 1 -79 -11 -52 -68 -161 -105 -202
-13 -14 -30 -35 -38 -47 -36 -54 -167 -115 -274 -127 -54 -6 -69 -3 -115 19
-52 24 -94 51 -151 95 -19 15 -34 43 -49 91 -19 62 -20 77 -10 151 6 45 13 83
15 85 2 2 20 -7 41 -21 20 -14 46 -28 58 -31 12 -4 41 -16 63 -28 64 -32 92
-15 142 83 22 43 53 94 68 114 25 31 30 33 48 21 11 -8 36 -44 55 -81z m-1829
57 c19 -10 36 -26 38 -35 2 -9 -13 -35 -32 -58 -20 -23 -36 -46 -36 -52 -1 -6
-14 -38 -29 -71 -24 -50 -30 -57 -36 -40 -4 11 -20 47 -35 80 -34 75 -42 108
-34 140 13 52 100 71 164 36z m-1635 -81 c3 -6 -1 -7 -9 -4 -18 7 -21 14 -7
14 6 0 13 -4 16 -10z m1945 -56 c-20 -23 -47 -35 -64 -28 -25 10 -19 23 17 33
51 15 62 14 47 -5z m-207 -27 c9 -23 128 -107 152 -107 12 0 53 20 91 45 38
25 78 44 88 43 10 -2 28 -16 40 -31 17 -24 21 -43 21 -111 0 -79 -2 -87 -48
-179 -50 -99 -109 -167 -146 -167 -11 0 -22 -4 -26 -9 -7 -12 -139 -42 -157
-37 -153 47 -195 63 -222 85 -17 15 -48 39 -70 55 -43 33 -63 72 -68 137 -3
49 -8 47 92 38 19 -1 44 1 56 4 32 11 83 81 100 137 23 77 82 136 97 97z"/>
<path d="M3674 3806 c-18 -46 31 -82 97 -71 31 5 39 11 39 29 0 43 -121 80
-136 42z"/>
<path d="M3230 3722 c-64 -29 -82 -61 -60 -103 14 -26 33 -24 69 7 47 39 56
62 35 85 -18 20 -21 21 -44 11z"/>
<path d="M3375 3692 c-64 -34 -67 -37 -104 -110 -44 -87 -41 -146 9 -175 34
-20 86 -22 121 -3 14 7 59 21 100 30 41 9 101 23 134 31 33 7 91 16 129 19
137 11 176 64 114 155 -19 28 -35 37 -93 52 -76 19 -152 23 -230 9 -38 -6 -55
-5 -72 6 -31 19 -50 17 -108 -14z m404 -50 c55 -22 86 -44 102 -74 17 -31 -36
-48 -147 -48 -68 0 -116 -6 -158 -19 -34 -11 -81 -25 -106 -32 -25 -7 -56 -19
-70 -26 -54 -28 -110 -9 -110 36 0 46 93 151 160 183 8 4 74 6 145 5 106 -2
140 -7 184 -25z"/>
<path d="M5421 1737 c2 -1 13 -9 24 -17 19 -14 19 -14 6 3 -7 9 -18 17 -24 17
-6 0 -8 -1 -6 -3z"/>
<path d="M1948 5743 c7 -3 16 -2 19 1 4 3 -2 6 -13 5 -11 0 -14 -3 -6 -6z"/>
<path d="M5065 3890 c3 -5 15 -10 26 -10 10 0 19 5 19 10 0 6 -12 10 -26 10
-14 0 -23 -4 -19 -10z"/>
<path d="M5056 3872 c-11 -18 5 -40 32 -45 15 -3 27 -5 28 -4 0 1 -12 15 -27
31 -15 16 -29 24 -33 18z"/>
<path d="M5130 3870 c8 -5 24 -9 35 -9 l20 0 -20 9 c-11 5 -27 9 -35 9 -13 1
-13 0 0 -9z"/>
<path d="M5192 3838 c5 -15 28 -23 28 -10 0 5 -7 13 -16 16 -10 4 -14 1 -12
-6z"/>
<path d="M5356 3673 c-6 -14 -5 -15 5 -6 7 7 10 15 7 18 -3 3 -9 -2 -12 -12z"/>
<path d="M5558 3583 c7 -3 16 -2 19 1 4 3 -2 6 -13 5 -11 0 -14 -3 -6 -6z"/>
<path d="M5604 3566 c11 -9 24 -16 30 -16 12 0 7 5 -24 19 -24 11 -24 11 -6
-3z"/>
<path d="M5955 3310 c3 -5 11 -10 16 -10 6 0 7 5 4 10 -3 6 -11 10 -16 10 -6
0 -7 -4 -4 -10z"/>
<path d="M5980 2706 c0 -8 4 -17 9 -20 5 -4 7 3 4 14 -6 23 -13 26 -13 6z"/>
<path d="M5991 2334 c0 -11 3 -14 6 -6 3 7 2 16 -1 19 -3 4 -6 -2 -5 -13z"/>
<path d="M5952 2000 c0 -14 2 -19 5 -12 2 6 2 18 0 25 -3 6 -5 1 -5 -13z"/>
</g>
</svg>
